<svg xmlns="http://www.w3.org/2000/svg" viewBox="0 0 54.97 54.97" fill="#7c3aed">
  <path transform="translate(7.13 36.31)" d="M0-17.65L6.89-17.65Q9.65-17.65 11.52-16.39Q13.39-15.13 14.30-13.12Q15.21-11.10 15.21-8.84Q15.21-6.34 14.22-4.34Q13.23-2.34 11.36-1.17Q9.49 0 6.89 0L0 0L0-17.65M4.94-4.24L6.19-4.24Q8.32-4.24 9.28-5.50Q10.24-6.76 10.24-8.84Q10.24-10.89 9.28-12.16Q8.32-13.42 6.19-13.42L4.94-13.42L4.94-4.24M40.72-17.65L36.84 0L30.13 0L28.55-7.70L26.94 0L20.23 0L16.51-17.65L21.48-17.65L23.66-4.65L26.23-15.55L30.84-15.55L33.44-4.50L35.78-17.65"/>
</svg>
